<svg width="36" height="26" viewBox="0 0 36 26" fill="none" xmlns="http://www.w3.org/2000/svg">
<path d="M9.9135 3.5195C12.1623 1.5803 15.0305 0.509312 18 0.5C24.0525 0.5 29.0768 5 29.6235 10.8027C33.2055 11.309 36 14.3082 36 17.9893C36 22.0302 32.6295 25.25 28.5457 25.25H8.50725C3.843 25.25 0 21.5735 0 16.9655C0 12.9987 2.8485 9.71375 6.6195 8.88125C6.94125 6.9395 8.19 5.0045 9.9135 3.5195ZM11.3827 5.22275C9.6795 6.692 8.7885 8.46275 8.7885 9.84875V10.8568L7.78725 10.967C4.644 11.3112 2.25 13.892 2.25 16.9655C2.25 20.2663 5.0175 23 8.50725 23H28.5457C31.455 23 33.75 20.723 33.75 17.9893C33.75 15.2532 31.455 12.9762 28.5457 12.9762H27.4207V11.8512C27.423 6.85625 23.238 2.75 18 2.75C15.5697 2.75971 13.2229 3.63748 11.3827 5.225V5.22275Z" fill="#6200EE"/>
</svg>
