<?xml version="1.0" encoding="utf-8"?>
<!-- Generator: Adobe Illustrator 21.0.0, SVG Export Plug-In . SVG Version: 6.00 Build 0)  -->
<svg version="1.1" id="Capa_1" xmlns="http://www.w3.org/2000/svg" xmlns:xlink="http://www.w3.org/1999/xlink" x="0px" y="0px"
	 width="512px" height="512px" viewBox="0 0 512 512" style="enable-background:new 0 0 512 512;" xml:space="preserve">
	 <style>
	.st0{
		fill: #4b77b9;
		stroke: #4b77b9;
	}
</style>
<g>
	<path class="st0" d="M98,448H78.5C60.6,448,46,433.4,46,415.5V104c0-4.1-3.4-7.5-7.5-7.5S31,99.9,31,104v311.5c0,26.2,21.3,47.5,47.5,47.5H98
		c4.1,0,7.5-3.4,7.5-7.5S102.2,448,98,448z"/>
	<path class="st0" d="M96,157.5h123.7c4.1,0,7.5-3.4,7.5-7.5s-3.4-7.5-7.5-7.5H96c-4.1,0-7.5,3.4-7.5,7.5S91.8,157.5,96,157.5z"/>
	<path class="st0" d="M96,322.5c-4.1,0-7.5,3.4-7.5,7.5s3.4,7.5,7.5,7.5h123.7c4.1,0,7.5-3.4,7.5-7.5s-3.4-7.5-7.5-7.5H96z"/>
	<path class="st0" d="M94,217.5h224c4.1,0,7.5-3.4,7.5-7.5s-3.4-7.5-7.5-7.5H94c-4.1,0-7.5,3.4-7.5,7.5S89.8,217.5,94,217.5z"/>
	<path class="st0" d="M94,277.5h224c4.1,0,7.5-3.4,7.5-7.5s-3.4-7.5-7.5-7.5H94c-4.1,0-7.5,3.4-7.5,7.5S89.8,277.5,94,277.5z"/>
	<path class="st0" d="M401,297.9V151.5c0-10-3.9-19.4-11-26.5L276.3,11c-7.1-7.1-16.5-11-26.5-11H78.5C52.4,0,31,21.3,31,47.5V69
		c0,4.1,3.4,7.5,7.5,7.5S46,73.1,46,69V47.5C46,29.6,60.6,15,78.5,15h171.2c1.7,0,3.3,0.2,4.9,0.6V112c0,19.1,15.5,34.6,34.5,34.6
		H353c4.1,0,7.5-3.4,7.5-7.5s-3.4-7.5-7.5-7.5h-63.8c-10.8,0-19.5-8.8-19.5-19.6V25.6l105.8,106H348c-4.1,0-7.5,3.4-7.5,7.5
		s3.4,7.5,7.5,7.5h37.4c0.4,1.6,0.6,3.2,0.6,4.9v143.4c-4.6-0.6-9.3-0.9-14.1-0.9c-60.1,0-109,48.9-109,109c0,16,3.5,31.3,9.7,45
		H133c-4.1,0-7.5,3.4-7.5,7.5s3.4,7.5,7.5,7.5h148c19.5,29.5,53,49,91,49c60.1,0,109-48.9,109-109C481,353,447.1,310.7,401,297.9z
		 M372,497c-51.8,0-94-42.2-94-94s42.2-94,94-94s94,42.2,94,94S423.8,497,372,497z"/>
	<path class="st0" d="M410.7,357.5c-6,0-11.7,2.3-15.9,6.6l-30.1,30.1l-15.6-15.6c-4.3-4.3-9.9-6.6-15.9-6.6s-11.7,2.3-15.9,6.6
		c-8.8,8.8-8.8,23,0,31.8l31.5,31.5c4.3,4.3,9.9,6.6,15.9,6.6s11.7-2.3,15.9-6.6l6.8-6.8c2.9-2.9,2.9-7.7,0-10.6
		c-2.9-2.9-7.7-2.9-10.6,0l-6.8,6.8c-1.4,1.4-3.3,2.2-5.3,2.2s-3.9-0.8-5.3-2.2l-31.5-31.5c-1.4-1.4-2.2-3.3-2.2-5.3
		s0.8-3.9,2.2-5.3s3.3-2.2,5.3-2.2s3.9,0.8,5.3,2.2l20.9,20.9c2.9,2.9,7.7,2.9,10.6,0l35.4-35.4c1.4-1.4,3.3-2.2,5.3-2.2
		s3.9,0.8,5.3,2.2c2.9,2.9,2.9,7.7,0,10.6l-38.5,38.5c-2.9,2.9-2.9,7.7,0,10.6c2.9,2.9,7.7,2.9,10.6,0l38.5-38.5
		c8.8-8.8,8.8-23,0-31.8C422.4,359.8,416.7,357.5,410.7,357.5L410.7,357.5z"/>
</g>
</svg>
