<?xml version="1.0" encoding="utf-8"?>
<!-- Generator: Adobe Illustrator 23.0.3, SVG Export Plug-In . SVG Version: 6.00 Build 0)  -->
<svg version="1.1" id="Capa_1" xmlns="http://www.w3.org/2000/svg" xmlns:xlink="http://www.w3.org/1999/xlink" x="0px" y="0px"
	 viewBox="0 0 512 512" style="enable-background:new 0 0 512 512;" xml:space="preserve">
<style>
	.st0{
		fill: #4b77b9;
		stroke: #4b77b9;
	}
</style>
<g>
	<g>
		<path class="st0" d="M504.5,464.7h-20.8V273.5c0-4.1-3.4-7.5-7.5-7.5s-7.5,3.4-7.5,7.5v191.2h-45.6V198.8h45.6v39.6c0,4.1,3.4,7.5,7.5,7.5
			s7.5-3.4,7.5-7.5v-47.1c0-4.1-3.4-7.5-7.5-7.5h-60.6c-4.1,0-7.5,3.4-7.5,7.5v273.3h-29.5v-144c0-4.1-3.4-7.5-7.5-7.5h-60.6
			c-4.1,0-7.5,3.4-7.5,7.5v144h-29.4V260c0-4.1-3.4-7.5-7.5-7.5h-60.6c-4.1,0-7.5,3.4-7.5,7.5v204.6h-29.4v-73.3
			c0-4.1-3.4-7.5-7.5-7.5h-60.6c-4.1,0-7.5,3.4-7.5,7.5v73.3H47.3v-41.6h16.7c4.1,0,7.5-3.4,7.5-7.5s-3.4-7.5-7.5-7.5H47.3V311h16.7
			c4.1,0,7.5-3.4,7.5-7.5s-3.4-7.5-7.5-7.5H47.3v-97.1h16.7c4.1,0,7.5-3.4,7.5-7.5s-3.4-7.5-7.5-7.5H47.3V86.7h16.7
			c4.1,0,7.5-3.4,7.5-7.5s-3.4-7.5-7.5-7.5H47.3V7.5C47.3,3.4,44,0,39.8,0H7.5C3.4,0,0,3.4,0,7.5V134c0,4.1,3.4,7.5,7.5,7.5
			s7.5-3.4,7.5-7.5V15h17.3v457.2c0,4.1,3.4,7.5,7.5,7.5H497V497H23.7c-4.8,0-8.7-3.9-8.7-8.7V169c0-4.1-3.4-7.5-7.5-7.5
			S0,164.9,0,169v319.3c0,13,10.6,23.7,23.7,23.7h480.8c4.1,0,7.5-3.4,7.5-7.5v-32.3C512,468,508.6,464.7,504.5,464.7L504.5,464.7z
			 M318,328.2h45.6v136.5H318V328.2z M213,267.5h45.6v197.1H213V267.5z M107.9,398.9h45.6v65.8h-45.6L107.9,398.9z"/>
	</g>
</g>
</svg>
