<?xml version="1.0" encoding="utf-8"?>
<!-- Generator: Adobe Illustrator 23.0.3, SVG Export Plug-In . SVG Version: 6.00 Build 0)  -->
<svg version="1.1" id="_x33_0" xmlns="http://www.w3.org/2000/svg" xmlns:xlink="http://www.w3.org/1999/xlink" x="0px" y="0px"
	 viewBox="0 0 512 512" style="enable-background:new 0 0 512 512;" xml:space="preserve">

<style>
	.st0{
		fill: #4b77b9;
		stroke: #4b77b9;
	}
</style>
<g>
	<path class="st0" d="M360,421.2c5.1,1.8,10.5,2.8,16,2.8c26.5,0,48-21.5,48-48c35.3,0,64-28.7,64-64c0-32.2-23.8-58.9-54.8-63.3
		c-4.9-0.7-9.2,3-9.2,7.9l0,0c0,4,2.9,7.3,6.8,7.9c23.3,3.3,41.2,23.4,41.2,47.5c0,26.5-21.5,48-48,48c-1,0-1.9-0.2-2.9-0.2
		c-5.6-15.6-19.1-27.5-35.6-30.8c-4.9-1-9.5,2.8-9.5,7.9v0c0,3.8,2.6,7.1,6.3,7.8c15.6,3.1,27.2,17.7,25.5,34.6
		c-1.4,14.5-12.8,26.3-27.2,28.5c-7.4,1.1-14.5-0.5-20.7-4V376c0-8.8-7.2-16-16-16h-64c-8.8,0-16,7.2-16,16v112h-32V280
		c0-8.8-7.2-16-16-16h-15.4c-17.9,0-32.9-14.7-32.6-32.6c0.3-17.4,14.5-31.4,32-31.4c15.5,0,28.4,11,31.4,25.6
		c0.8,3.7,4,6.4,7.8,6.4h0c5,0,8.9-4.6,7.9-9.5c-4.4-21.9-23.8-38.5-47.1-38.5c-26.5,0-48,21.5-48,48c-8.8,0-16-7.2-16-16
		c0-6.9,4.4-12.8,10.6-15.1c3.2-1.1,5.4-4.1,5.4-7.4v-0.4c0-5.4-5.3-9.1-10.4-7.4C129,190.1,120,202,120,216c0,17.6,14.4,32,32,32
		c0.9,0,1.8-0.2,2.7-0.2c2.1,6.1,5.4,11.6,9.6,16.2H152c-8.8,0-16,7.2-16,16v208h-32V184c0-8.8-7.2-16-16-16H41.6
		c-0.9-2.6-1.6-5.2-1.6-8c0-11.2,7.7-20.6,18-23.2c3.5-0.9,6-3.9,6-7.5v-0.4c0-5-4.7-8.9-9.6-7.6c-5.2,1.3-10,3.7-14.2,6.9
		C30.1,120.6,24,108.7,24,96c0-22.1,17.9-40,40-40c19.8,0,36.3,14.5,39.5,33.5c0.6,3.8,4,6.5,7.9,6.5h0c5,0,8.7-4.5,7.9-9.4
		c-3.1-18.1-14.9-33.2-31-41C89.5,33.5,99.6,24,112,24c11.2,0,20.6,7.7,23.2,18c0.9,3.5,3.9,6,7.5,6h0.4c5,0,8.9-4.7,7.7-9.6
		C146.5,21,130.8,8,112,8C92.4,8,76.2,22.2,72.7,40.8C69.9,40.3,67,40,64,40C33.1,40,8,65.1,8,96c0,17.4,8.1,33.5,21.5,44.1
		C26.1,146,24,152.7,24,160c0,2.7,0.4,5.4,0.9,8H24c-8.8,0-16,7.2-16,16v320h496v-16H360V421.2z M88,184v16H24v-16H88z M24,296v-80
		h64v80H24z M88,312v80H24v-80H88z M24,488v-80h64v80H24z M344,440h-64v-32h64V440z M344,376v16h-64v-16H344z M280,456h64v32h-64
		V456z M216,360h-64v-48h64V360z M216,376v48h-64v-48H216z M216,280v16h-64v-16H216z M152,440h64v48h-64V440z"/>
	<path class="st0" d="M443.1,151.9c32.8-1.5,59.3-28.1,60.9-60.9c1.6-33.6-22.9-61.9-54.8-66.4c-4.8-0.7-9.1,3-9.1,7.9v0.1c0,4,3,7.3,6.9,7.9
		c24.4,3.5,42.9,25.4,40.9,51.2c-1.8,23.5-20.7,42.4-44.2,44.2c-25.7,1.9-47.6-16.6-51.2-40.9c-0.6-4-3.9-6.9-7.9-6.9h-0.1
		c-4.8,0-8.6,4.3-7.9,9.1C381.2,129.1,409.5,153.5,443.1,151.9z"/>
	<path class="st0" d="M286.8,80h0.4c5,0,8.9-4.7,7.7-9.6C290.5,53,274.8,40,256,40s-34.5,13-38.8,30.4c-1.2,4.9,2.6,9.6,7.7,9.6h0.4
		c3.6,0,6.6-2.5,7.5-6c2.7-10.3,12.1-18,23.2-18s20.6,7.7,23.2,18C280.1,77.5,283.2,80,286.8,80z"/>
	<path class="st0" d="M464.8,244.8l0.3,0.3c3.7,3.4,9.7,2.6,12.1-1.8c8.8-15.7,6.1-35.9-7.6-48.7c-13.7-12.8-34.1-14.1-49.1-4.3
		c-4.2,2.7-4.6,8.8-0.9,12.2l0.3,0.3c2.6,2.5,6.6,2.7,9.6,0.8c9-5.7,21.1-4.9,29.3,2.7c8.2,7.6,9.8,19.6,4.7,29
		C461.7,238.5,462.2,242.4,464.8,244.8z"/>
	<path class="st0" d="M386.5,227.5l-0.3-0.4c-3.9-4.4-11-4.2-14.4,0.6c-12.1,17.3-11.4,41.2,3.1,57.8c14.5,16.6,38.1,20.5,56.8,10.8
		c5.3-2.7,6.4-9.7,2.6-14.2l-0.3-0.4c-2.8-3.2-7.3-3.9-11.1-2c-11.2,5.6-25.2,3.2-33.8-6.6c-8.6-9.9-9.1-24.1-2-34.4
		C389.4,235.3,389.2,230.7,386.5,227.5z"/>
	<path class="st0" d="M218.8,141.5c8.5,5.2,18.1,8.6,28.4,9.9c4.7,0.6,8.9-3.2,8.9-8v0c0-4-3-7.4-7-7.9c-28.4-3.6-50.3-28.5-48.9-58.2
		c1.3-28.7,24.6-51.9,53.3-53.3C283,22.7,308,44.6,311.6,73c0.5,4,3.9,7,7.9,7h0c4.8,0,8.5-4.2,7.9-9c-1.6-12.3-6.2-23.6-13.2-33.2
		C318.2,29.6,326.6,24,336,24c11.2,0,20.6,7.7,23.2,18c0.9,3.5,3.9,6,7.5,6h0.4c5,0,8.9-4.7,7.7-9.6C370.5,21,354.8,8,336,8
		c-13.4,0-25.7,6.8-33,17.5C289.2,13.7,271,6.9,251.2,8.2c-36,2.4-65,31.5-67.1,67.6c-1.3,21.9,7.3,41.8,21.7,55.8
		c-3.9,10.2-12.7,17.7-23.4,19.8c-3.7,0.8-6.4,4-6.4,7.8v0c0,5,4.6,8.9,9.6,7.9C200,164.1,212.2,154.7,218.8,141.5z"/>
	<path class="st0" d="M310.7,264c16-0.6,29.6,10.6,32.6,25.7c0.7,3.7,4,6.3,7.8,6.3l0,0c5,0,8.9-4.6,7.9-9.5c-4.4-21.9-23.8-38.5-47.1-38.5
		c-26.5,0-48,21.5-48,48c0,9.7,2.9,18.9,8.2,26.8c-2.9,3.2-5.1,7-6.5,11.1c-1.7,5,2.1,10.1,7.3,10.1h0.5c3.3,0,6.2-2.2,7.3-5.3
		c2.2-6.2,8.1-10.7,15.1-10.7c6.9,0,12.8,4.4,15.1,10.6c1.1,3.2,4.1,5.4,7.4,5.4h0.4c5.4,0,9.1-5.3,7.4-10.4
		C321.9,321,310,312,296,312c-3.7,0-7.2,0.8-10.5,1.9c-4.3-6.3-6.2-13.8-5.3-21.7C282,276.7,295.1,264.6,310.7,264z"/>
	<path class="st0" d="M383.9,164.3c-1.8-23.5-20.7-42.4-44.2-44.2c-24.8-1.9-46,15.2-50.7,38.3c-1,4.9,2.8,9.6,7.8,9.6l0,0
		c3.8,0,7.1-2.8,7.9-6.5c3.2-15.2,17.2-26.5,33.6-25.4c15.8,1.1,28.5,13.9,29.6,29.6c1.1,16.4-10.2,30.4-25.4,33.6
		c-3.8,0.8-6.5,4-6.5,7.9v0c0,5,4.6,8.9,9.6,7.8C368.6,210.4,385.7,189.1,383.9,164.3z"/>
	<path class="st0" d="M288,224c14,0,25.9-9,30.3-21.6c1.8-5.1-2-10.4-7.4-10.4h-0.4c-3.4,0-6.3,2.2-7.4,5.4c-2.2,6.2-8.1,10.6-15.1,10.6
		s-12.8-4.4-15.1-10.6c-1.1-3.2-4.1-5.4-7.4-5.4h-0.4c-5.4,0-9.1,5.3-7.4,10.4C262.1,215,274,224,288,224z"/>
</g>
</svg>
